<svg xmlns="http://www.w3.org/2000/svg" width="21" height="17" viewBox="0 0 21 17"><g><g><path fill="#b8a9a4" d="M20.916 2.17a8.326 8.326 0 0 1-2.396.658A4.195 4.195 0 0 0 20.354.513c-.806.48-1.699.828-2.649 1.016A4.161 4.161 0 0 0 14.66.207a4.178 4.178 0 0 0-4.172 4.185c0 .328.037.647.108.953A11.831 11.831 0 0 1 1.998.973a4.173 4.173 0 0 0-.565 2.104c0 1.452.736 2.733 1.856 3.483a4.15 4.15 0 0 1-1.89-.524v.053a4.184 4.184 0 0 0 3.346 4.103 4.177 4.177 0 0 1-1.884.072 4.178 4.178 0 0 0 3.897 2.906 8.353 8.353 0 0 1-6.176 1.732 11.78 11.78 0 0 0 6.395 1.88c7.673 0 11.87-6.376 11.87-11.905 0-.182-.005-.362-.013-.541a8.492 8.492 0 0 0 2.082-2.167z"/><path fill="#6b6b6b" d="M20.916 2.17a8.326 8.326 0 0 1-2.396.658A4.195 4.195 0 0 0 20.354.513c-.806.48-1.699.828-2.649 1.016A4.161 4.161 0 0 0 14.66.207a4.178 4.178 0 0 0-4.172 4.185c0 .328.037.647.108.953A11.831 11.831 0 0 1 1.998.973a4.173 4.173 0 0 0-.565 2.104c0 1.452.736 2.733 1.856 3.483a4.15 4.15 0 0 1-1.89-.524v.053a4.184 4.184 0 0 0 3.346 4.103 4.177 4.177 0 0 1-1.884.072 4.178 4.178 0 0 0 3.897 2.906 8.353 8.353 0 0 1-6.176 1.732 11.78 11.78 0 0 0 6.395 1.88c7.673 0 11.87-6.376 11.87-11.905 0-.182-.005-.362-.013-.541a8.492 8.492 0 0 0 2.082-2.167z"/></g></g></svg>